<mxfile host="app.diagrams.net" modified="2021-08-02T10:33:50.138Z" agent="5.0 (Windows)" etag="4-yGKtHNw-Us0B_i_rx_" version="14.9.2" type="github">
  <diagram id="WVIWKFgPiaho4UmIflbX" name="Page-1">
    <mxGraphModel dx="1038" dy="508" grid="1" gridSize="10" guides="1" tooltips="1" connect="1" arrows="1" fold="1" page="1" pageScale="1" pageWidth="1169" pageHeight="827" math="0" shadow="0">
      <root>
        <mxCell id="0" />
        <mxCell id="1" parent="0" />
        <mxCell id="dAVz5kQ6bnQr92_F5C6R-1" value="BOARD OF SURVEY " style="swimlane;" vertex="1" parent="1">
          <mxGeometry x="30" y="30" width="800" height="600" as="geometry" />
        </mxCell>
        <mxCell id="dAVz5kQ6bnQr92_F5C6R-6" value="" style="edgeStyle=orthogonalEdgeStyle;rounded=0;orthogonalLoop=1;jettySize=auto;html=1;" edge="1" parent="dAVz5kQ6bnQr92_F5C6R-1" source="dAVz5kQ6bnQr92_F5C6R-2" target="dAVz5kQ6bnQr92_F5C6R-3">
          <mxGeometry relative="1" as="geometry" />
        </mxCell>
        <mxCell id="dAVz5kQ6bnQr92_F5C6R-2" value="Start" style="rounded=1;whiteSpace=wrap;html=1;" vertex="1" parent="dAVz5kQ6bnQr92_F5C6R-1">
          <mxGeometry x="70" y="50" width="120" height="60" as="geometry" />
        </mxCell>
        <mxCell id="dAVz5kQ6bnQr92_F5C6R-5" value="" style="edgeStyle=orthogonalEdgeStyle;rounded=0;orthogonalLoop=1;jettySize=auto;html=1;" edge="1" parent="dAVz5kQ6bnQr92_F5C6R-1" source="dAVz5kQ6bnQr92_F5C6R-3" target="dAVz5kQ6bnQr92_F5C6R-4">
          <mxGeometry relative="1" as="geometry" />
        </mxCell>
        <mxCell id="dAVz5kQ6bnQr92_F5C6R-3" value="&lt;span lang=&quot;EN-GB&quot;&gt;Head Accouning Unit (HAU) writes a memo to the CEO seeking approval for appointment of a suggestedofficers to conduct board of survey&lt;/span&gt;" style="rounded=0;whiteSpace=wrap;html=1;" vertex="1" parent="dAVz5kQ6bnQr92_F5C6R-1">
          <mxGeometry x="20" y="170" width="220" height="90" as="geometry" />
        </mxCell>
        <mxCell id="dAVz5kQ6bnQr92_F5C6R-8" value="" style="edgeStyle=orthogonalEdgeStyle;rounded=0;orthogonalLoop=1;jettySize=auto;html=1;" edge="1" parent="dAVz5kQ6bnQr92_F5C6R-1" source="dAVz5kQ6bnQr92_F5C6R-4" target="dAVz5kQ6bnQr92_F5C6R-7">
          <mxGeometry relative="1" as="geometry" />
        </mxCell>
        <mxCell id="dAVz5kQ6bnQr92_F5C6R-4" value="&lt;span lang=&quot;EN-GB&quot;&gt;CEO appoints officers for the board of survey (may remove and/or add tothe suggested list) and notify HAU&lt;br&gt;&lt;/span&gt;" style="rounded=0;whiteSpace=wrap;html=1;" vertex="1" parent="dAVz5kQ6bnQr92_F5C6R-1">
          <mxGeometry x="20" y="340" width="220" height="80" as="geometry" />
        </mxCell>
        <mxCell id="dAVz5kQ6bnQr92_F5C6R-10" value="" style="edgeStyle=orthogonalEdgeStyle;rounded=0;orthogonalLoop=1;jettySize=auto;html=1;" edge="1" parent="dAVz5kQ6bnQr92_F5C6R-1" source="dAVz5kQ6bnQr92_F5C6R-7" target="dAVz5kQ6bnQr92_F5C6R-9">
          <mxGeometry relative="1" as="geometry" />
        </mxCell>
        <mxCell id="dAVz5kQ6bnQr92_F5C6R-7" value="&lt;span lang=&quot;EN-GB&quot;&gt;HAU requests for the bank certificate and downloads a bank statement andforward to chair BoS&lt;/span&gt;" style="rounded=0;whiteSpace=wrap;html=1;" vertex="1" parent="dAVz5kQ6bnQr92_F5C6R-1">
          <mxGeometry x="35" y="500" width="190" height="80" as="geometry" />
        </mxCell>
        <mxCell id="dAVz5kQ6bnQr92_F5C6R-12" value="" style="edgeStyle=orthogonalEdgeStyle;rounded=0;orthogonalLoop=1;jettySize=auto;html=1;" edge="1" parent="dAVz5kQ6bnQr92_F5C6R-1" source="dAVz5kQ6bnQr92_F5C6R-9" target="dAVz5kQ6bnQr92_F5C6R-11">
          <mxGeometry relative="1" as="geometry" />
        </mxCell>
        <mxCell id="dAVz5kQ6bnQr92_F5C6R-9" value="&lt;span lang=&quot;EN-GB&quot;&gt;Match balance in the bank certificate against the bank statement andbank reconciliation&lt;/span&gt;" style="rounded=0;whiteSpace=wrap;html=1;" vertex="1" parent="dAVz5kQ6bnQr92_F5C6R-1">
          <mxGeometry x="340" y="505" width="180" height="70" as="geometry" />
        </mxCell>
        <mxCell id="dAVz5kQ6bnQr92_F5C6R-14" value="" style="edgeStyle=orthogonalEdgeStyle;rounded=0;orthogonalLoop=1;jettySize=auto;html=1;" edge="1" parent="dAVz5kQ6bnQr92_F5C6R-1" source="dAVz5kQ6bnQr92_F5C6R-11" target="dAVz5kQ6bnQr92_F5C6R-13">
          <mxGeometry relative="1" as="geometry" />
        </mxCell>
        <mxCell id="dAVz5kQ6bnQr92_F5C6R-11" value="&lt;span lang=&quot;EN-GB&quot;&gt;Record details in the BoS template in the system (name, account number,bank account balance, cash book balance, reconciling figures)&lt;/span&gt;" style="rounded=0;whiteSpace=wrap;html=1;" vertex="1" parent="dAVz5kQ6bnQr92_F5C6R-1">
          <mxGeometry x="320" y="340" width="220" height="85" as="geometry" />
        </mxCell>
        <mxCell id="dAVz5kQ6bnQr92_F5C6R-16" value="" style="edgeStyle=orthogonalEdgeStyle;rounded=0;orthogonalLoop=1;jettySize=auto;html=1;" edge="1" parent="dAVz5kQ6bnQr92_F5C6R-1" source="dAVz5kQ6bnQr92_F5C6R-13" target="dAVz5kQ6bnQr92_F5C6R-15">
          <mxGeometry relative="1" as="geometry" />
        </mxCell>
        <mxCell id="dAVz5kQ6bnQr92_F5C6R-13" value="&lt;span lang=&quot;EN-GB&quot;&gt;The chairman of the survey team submits the report in the system to the HAU and a copy to CEO Office.&lt;/span&gt;" style="whiteSpace=wrap;html=1;rounded=0;" vertex="1" parent="dAVz5kQ6bnQr92_F5C6R-1">
          <mxGeometry x="330" y="187.5" width="200" height="72.5" as="geometry" />
        </mxCell>
        <mxCell id="dAVz5kQ6bnQr92_F5C6R-15" value="HAU files a copy of the report in the EDRMS" style="whiteSpace=wrap;html=1;rounded=0;" vertex="1" parent="dAVz5kQ6bnQr92_F5C6R-1">
          <mxGeometry x="650" y="193.75" width="120" height="60" as="geometry" />
        </mxCell>
        <mxCell id="dAVz5kQ6bnQr92_F5C6R-19" value="End" style="rounded=1;whiteSpace=wrap;html=1;" vertex="1" parent="dAVz5kQ6bnQr92_F5C6R-1">
          <mxGeometry x="650" y="330" width="120" height="60" as="geometry" />
        </mxCell>
        <mxCell id="dAVz5kQ6bnQr92_F5C6R-18" value="" style="edgeStyle=orthogonalEdgeStyle;rounded=0;orthogonalLoop=1;jettySize=auto;html=1;" edge="1" parent="dAVz5kQ6bnQr92_F5C6R-1" source="dAVz5kQ6bnQr92_F5C6R-15" target="dAVz5kQ6bnQr92_F5C6R-19">
          <mxGeometry relative="1" as="geometry">
            <mxPoint x="710" y="333.75" as="targetPoint" />
          </mxGeometry>
        </mxCell>
      </root>
    </mxGraphModel>
  </diagram>
</mxfile>
